<?xml version="1.0" standalone="no"?>
<!DOCTYPE svg PUBLIC "-//W3C//DTD SVG 20010904//EN"
 "http://www.w3.org/TR/2001/REC-SVG-20010904/DTD/svg10.dtd">
<svg version="1.0" xmlns="http://www.w3.org/2000/svg"
 width="512.000000pt" height="512.000000pt" viewBox="0 0 512.000000 512.000000"
 preserveAspectRatio="xMidYMid meet">

<g transform="translate(0.000000,512.000000) scale(0.100000,-0.100000)"
fill="#000000" stroke="none">
<path d="M2067 5010 c-18 -15 -29 -35 -34 -63 -5 -32 -20 -56 -69 -108 -89
-94 -99 -117 -99 -219 0 -102 10 -125 101 -221 54 -58 64 -74 64 -105 0 -31
-9 -46 -64 -103 -75 -77 -105 -136 -106 -204 0 -38 5 -53 25 -72 56 -57 145
-13 145 71 0 20 16 43 61 86 83 81 113 146 107 236 -5 87 -28 132 -105 210
-56 56 -63 67 -63 102 0 35 7 46 68 108 74 74 102 130 102 208 0 52 -24 83
-70 90 -27 4 -42 1 -63 -16z"/>
<path d="M2597 5010 c-18 -15 -29 -35 -34 -63 -5 -33 -20 -56 -73 -112 -83
-88 -105 -138 -98 -233 6 -84 23 -117 104 -203 54 -58 64 -74 64 -105 0 -31
-9 -46 -64 -103 -76 -78 -105 -136 -106 -208 0 -44 4 -55 26 -72 62 -49 144
-6 144 75 0 19 17 43 62 88 83 83 112 146 106 234 -5 87 -28 132 -105 210 -56
56 -63 67 -63 102 0 35 7 46 63 102 74 75 99 123 105 198 5 67 -15 98 -68 106
-27 4 -42 1 -63 -16z"/>
<path d="M3127 5010 c-18 -15 -29 -35 -34 -63 -5 -34 -19 -55 -69 -107 -79
-82 -104 -134 -104 -220 0 -86 25 -138 106 -221 55 -58 64 -72 64 -104 0 -32
-8 -46 -61 -99 -75 -74 -109 -141 -109 -213 0 -44 4 -55 26 -72 59 -47 124
-16 143 68 8 35 23 57 67 100 142 137 141 296 -5 440 -54 54 -61 65 -61 100 0
36 7 47 63 103 74 75 99 123 105 198 5 67 -15 98 -68 106 -27 4 -42 1 -63 -16z"/>
<path d="M890 3006 c0 -194 66 -443 171 -647 69 -133 79 -145 168 -208 164
-117 312 -338 371 -554 l22 -78 -49 -41 c-126 -109 -230 -241 -302 -386 -143
-286 -132 -617 27 -803 55 -65 166 -136 256 -166 111 -36 289 -38 415 -4 150
39 293 111 411 205 l45 36 813 0 c591 0 819 3 835 11 12 7 104 77 204 157 142
113 187 155 203 187 22 46 26 99 9 142 -15 42 -68 92 -109 103 -20 6 -216 10
-472 10 -385 0 -438 2 -438 15 0 61 100 437 162 610 63 176 186 413 293 565
202 286 288 513 302 798 l6 132 -1671 0 -1672 0 0 -84z m1660 -2529 c0 -2 -12
-14 -27 -28 l-28 -24 24 28 c23 25 31 32 31 24z m-70 -71 c0 -2 -8 -10 -17
-17 -16 -13 -17 -12 -4 4 13 16 21 21 21 13z"/>
<path d="M670 2272 l-65 -17 3 -45 c4 -55 46 -182 75 -230 12 -19 49 -72 83
-116 34 -45 71 -107 83 -139 30 -80 37 -184 17 -268 -20 -84 -39 -123 -112
-217 -98 -128 -154 -280 -154 -415 0 -136 56 -287 155 -415 72 -95 101 -156
117 -247 9 -58 15 -72 27 -69 9 2 34 7 56 11 22 3 54 10 71 16 31 9 32 12 27
52 -3 23 -16 77 -30 119 -22 73 -54 126 -162 275 -55 76 -76 149 -75 263 0
107 21 176 77 255 114 161 135 197 161 275 24 71 29 102 30 190 1 169 -36 273
-151 427 -77 103 -99 151 -115 245 -14 78 -12 77 -118 50z"/>
</g>
</svg>
